<?xml version="1.0" encoding="iso-8859-1"?>
<!-- Generator: Adobe Illustrator 19.0.0, SVG Export Plug-In . SVG Version: 6.00 Build 0)  -->
<svg version="1.1" id="Layer_1" xmlns="http://www.w3.org/2000/svg" xmlns:xlink="http://www.w3.org/1999/xlink" x="0px" y="0px"
	 viewBox="0 0 513.584 513.584" style="enable-background:new 0 0 513.584 513.584;" xml:space="preserve">
<g>
	<g>
		<path d="M513.551,481.392c0-8.4-3.2-16-9.2-22l-221.2-199.2l54.8-58c6.4,2.8,13.2,4,20.4,4c14,0,27.2-5.6,36.8-15.2l115.6-115.6
			c1.6-1.6,1.6-4,0-5.6c-1.6-1.6-4-1.6-5.6,0l-109.6,110c-1.2,0.8-5.2,0.8-13.2-3.2c-3.6-2-7.2-4-11.2-7.2l117.2-116.8
			c1.6-1.6,1.6-4,0-5.6c-1.6-1.6-4-1.6-5.6,0l-117.6,117.6c-2.8-2.4-6-5.2-8.8-8c-3.2-3.2-5.6-6-8-8.8l117.6-117.6
			c1.6-1.6,1.6-4,0-5.6c-1.6-1.6-4-1.6-5.6,0l-117.6,116.8c-9.2-12.4-12-22-10-24l109.6-109.6c1.6-1.6,1.6-4,0-5.6
			c-1.6-1.6-4-1.6-5.6,0l-115.2,114.8c-10,10-15.2,22.8-15.2,36.8c0,5.2,0.8,10.4,2,15.2c0,0,0,0-0.4,0l-37.6,36.8v-1.2
			c0-0.4,0-0.8,0-0.8v-0.4l-0.4-0.4c0-0.4-0.4-0.4-0.4-0.8c-1.2-1.2-135.6-126.4-226.8-181.2c-18.4-10.8-29.6-5.6-36,0.8
			c-4.4,2.8-6.4,8-6.4,13.6c0,5.2,2,10.4,5.6,14c0,0,0,0.4,0.4,0.4l209.6,209.6l-206.8,200.4c-12,12-12.4,32,0,44c6,6,14,8.8,22,8.8
			s16-3.2,22.4-9.2l198-209.2l209.2,209.2c6,6,13.6,9.2,22,9.2c8.4,0,16-3.2,22-9.2S513.951,489.792,513.551,481.392z
			 M325.151,124.992c2.8,10.8,12.8,25.2,25.2,37.2c9.2,9.6,19.6,17.2,28.4,21.6c3.6,1.6,6.4,2.8,8.8,3.6c-8,7.2-18.4,10.8-29.2,10.8
			c-12,0-22.8-4.8-31.2-12.8s-12.8-19.6-12.8-31.2C314.351,143.392,318.351,132.992,325.151,124.992z M270.351,216.992l41.2-40
			c2.4,5.2,6,10,10,14c2.8,2.8,6,5.2,9.2,7.2l-53.6,56.4l-6.8-6V216.992z M47.151,497.792c-9.2,9.2-23.6,9.2-32.8,0
			c-8.8-8.8-8.8-23.6,0-32.4l207.2-200.8l24,24L47.151,497.792z M498.351,497.792c-4.4,4.4-10.4,6.4-16.4,6.8c-6,0-12-2.4-16.4-6.8
			l-212-212l-29.2-29.6l-212.4-212.4c-2.4-2.4-3.6-5.2-3.6-8.4s1.2-6.4,3.6-8.8c2.4-2.4,9.6-9.6,26,0.4
			c86.4,52,210.8,166.8,224.4,179.2v8.8v34.8c0,1.2,0.4,2.4,1.2,2.8l11.2,10l223.2,202c4.4,4.4,6.8,10,6.8,16.4
			C504.751,487.792,502.351,493.392,498.351,497.792z"/>
	</g>
</g>
<g>
	<g>
		<path d="M61.551,52.192c-10.4-7.2-20.4-13.6-29.6-19.2c-2-1.2-4.4-0.4-5.6,1.6c-1.2,1.6-0.4,4,1.6,5.2c9.2,5.6,18.8,12,29.2,18.8
			c0.8,0.4,1.6,0.8,2.4,0.8c1.2,0,2.4-0.8,3.2-1.6C63.951,55.792,63.551,53.392,61.551,52.192z"/>
	</g>
</g>
<g>
	<g>
		<path d="M167.151,133.392c-22.8-18.8-44-36-64-50.8c-4.8-3.6-9.2-7.2-14-10.4c-2-1.6-4.4-3.2-6.4-4.8c-1.6-1.2-4.4-0.8-5.6,0.8
			c-1.2,1.6-0.8,4.4,0.8,5.6c2,1.6,4.4,3.2,6.4,4.8c4.8,3.6,9.2,6.8,14,10.4c19.6,14.8,41.2,32,63.6,50.8c0.8,0.8,1.6,0.8,2.4,0.8
			c1.2,0,2.4-0.4,3.2-1.6C169.151,137.392,168.751,134.592,167.151,133.392z"/>
	</g>
</g>
<g>
</g>
<g>
</g>
<g>
</g>
<g>
</g>
<g>
</g>
<g>
</g>
<g>
</g>
<g>
</g>
<g>
</g>
<g>
</g>
<g>
</g>
<g>
</g>
<g>
</g>
<g>
</g>
<g>
</g>
</svg>
