<?xml version="1.0" encoding="iso-8859-1"?>
<!-- Generator: Adobe Illustrator 19.0.0, SVG Export Plug-In . SVG Version: 6.00 Build 0)  -->
<svg version="1.1" id="Capa_1" xmlns="http://www.w3.org/2000/svg" xmlns:xlink="http://www.w3.org/1999/xlink" x="0px" y="0px"
	 viewBox="0 0 510.867 510.867" style="enable-background:new 0 0 510.867 510.867;" xml:space="preserve">
<g>
	<g>
		<path d="M491.851,223.545h-0.086c-2.202,0-3.951,1.788-3.951,3.998s1.827,3.998,4.037,3.998c2.202,0,3.998-1.788,3.998-3.998
			S494.053,223.545,491.851,223.545z"/>
	</g>
</g>
<g>
	<g>
		<path d="M203.985,39.633h-0.078c-2.209,0-3.959,1.788-3.959,3.998s1.831,3.998,4.037,3.998c2.21,0,3.999-1.788,3.999-3.998
			S206.195,39.633,203.985,39.633z"/>
	</g>
</g>
<g>
	<g>
		<path d="M4.081,135.587H4.003c-2.21,0-3.959,1.788-3.959,3.998s1.831,3.998,4.037,3.998c2.21,0,3.998-1.788,3.998-3.998
			S6.291,135.587,4.081,135.587z"/>
	</g>
</g>
<g>
	<g>
		<path d="M315.935,31.637h-0.086c-2.201,0-3.951,1.788-3.951,3.998c0,2.21,1.828,3.998,4.037,3.998
			c2.203,0,3.998-1.788,3.998-3.998C319.933,33.425,318.138,31.637,315.935,31.637z"/>
	</g>
</g>
<g>
	<g>
		<path d="M427.882,151.58h-0.086c-2.203,0-3.951,1.788-3.951,3.998c0,2.21,1.826,3.998,4.037,3.998
			c2.201,0,3.998-1.788,3.998-3.998C431.88,153.368,430.083,151.58,427.882,151.58z"/>
	</g>
</g>
<g>
	<g>
		<path d="M323.931,495.418h-0.086c-2.201,0-3.951,1.788-3.951,3.998c0,2.21,1.828,3.998,4.037,3.998
			c2.203,0,3.998-1.788,3.998-3.998C327.929,497.206,326.134,495.418,323.931,495.418z"/>
	</g>
</g>
<g>
	<g>
		<path d="M195.989,463.434h-0.078c-2.209,0-3.959,1.788-3.959,3.998c0,2.209,1.831,3.998,4.037,3.998
			c2.21,0,3.998-1.789,3.998-3.998C199.987,465.222,198.199,463.434,195.989,463.434z"/>
	</g>
</g>
<g>
	<g>
		<path d="M12.078,343.492H12c-2.21,0-3.959,1.788-3.959,3.998c0,2.21,1.831,3.998,4.037,3.998c2.21,0,3.998-1.788,3.998-3.998
			C16.076,345.28,14.288,343.492,12.078,343.492z"/>
	</g>
</g>
<g>
	<g>
		<path d="M76.047,391.468h-0.078c-2.209,0-3.959,1.788-3.959,3.998c0,2.21,1.831,3.998,4.037,3.998c2.21,0,3.998-1.788,3.998-3.998
			C80.045,393.256,78.257,391.468,76.047,391.468z"/>
	</g>
</g>
<g>
	<g>
		<path d="M75.813,463.434c-2.21,0-3.998,1.788-3.998,3.998v31.977c0,2.21,1.788,3.998,3.998,3.998c2.209,0,3.998-1.788,3.998-3.998
			v-31.977C79.811,465.222,78.022,463.434,75.813,463.434z"/>
	</g>
</g>
<g>
	<g>
		<path d="M83.805,479.418H67.816c-2.209,0-3.998,1.788-3.998,3.998c0,2.21,1.789,3.998,3.998,3.998h15.989
			c2.21,0,3.998-1.788,3.998-3.998C87.803,481.206,86.015,479.418,83.805,479.418z"/>
	</g>
</g>
<g>
	<g>
		<path d="M35.828,231.542c-2.209,0-3.998,1.788-3.998,3.998v31.988c0,2.21,1.789,3.998,3.998,3.998c2.21,0,3.998-1.788,3.999-3.998
			V235.54C39.827,233.33,38.038,231.542,35.828,231.542z"/>
	</g>
</g>
<g>
	<g>
		<path d="M43.824,247.534l-15.993-0.008c-2.206,0-3.998,1.788-3.998,3.998c0,2.206,1.789,3.998,3.998,3.998l15.993,0.008
			c2.206,0,3.998-1.788,3.998-3.998C47.822,249.326,46.033,247.534,43.824,247.534z"/>
	</g>
</g>
<g>
	<g>
		<path d="M467.621,303.511c-2.21,0-3.998,1.789-3.998,3.998v31.985c0,2.21,1.788,3.998,3.998,3.998
			c2.209,0,3.998-1.788,3.998-3.998v-31.985C471.619,305.3,469.831,303.511,467.621,303.511z"/>
	</g>
</g>
<g>
	<g>
		<path d="M475.616,319.502h-15.992c-2.21,0-3.998,1.789-3.998,3.998c0,2.211,1.788,3.998,3.998,3.998h15.993
			c2.21,0,3.998-1.787,3.997-3.998C479.614,321.291,477.826,319.502,475.616,319.502z"/>
	</g>
</g>
<g>
	<g>
		<path d="M459.624,23.644c-15.429,0-27.986,12.553-27.986,27.979c0,15.427,12.556,27.979,27.986,27.979
			s27.987-12.556,27.986-27.987C487.61,36.193,475.053,23.644,459.624,23.644z M459.624,71.606c-11.026,0-19.99-8.964-19.99-19.983
			c0-11.017,8.964-19.982,19.99-19.982s19.991,8.961,19.99,19.974C479.614,62.638,470.649,71.606,459.624,71.606z"/>
	</g>
</g>
<g>
	<g>
		<path d="M460.343,79.669c-1.703-1.92-4.717-11.76-4.717-28.045c0-16.285,3.014-26.12,4.725-28.037
			c1.857-0.34,3.271-1.972,3.271-3.932c0-2.21-1.788-3.998-3.998-3.998c-11.416,0-11.994,29.962-11.994,35.967
			c0,12.291,1.89,28.533,7.223,33.855c1.749,1.753,3.56,2.12,4.771,2.12c0,0,0,0,0.008,0c2.21-0.004,3.998-1.796,3.99-4.006
			C463.622,81.633,462.208,80.004,460.343,79.669z"/>
	</g>
</g>
<g>
	<g>
		<path d="M15.693,11.627h-0.078c-2.209,0-3.959,1.788-3.959,3.998c0,2.21,1.831,3.998,4.037,3.998c2.21,0,3.998-1.788,3.998-3.998
			C19.691,13.415,17.903,11.627,15.693,11.627z"/>
	</g>
</g>
<g>
	<g>
		<path d="M31.685,27.62h-0.078c-2.21,0-3.959,1.788-3.959,3.998s1.831,3.998,4.037,3.998c2.21,0,3.998-1.788,3.998-3.998
			S33.894,27.62,31.685,27.62z"/>
	</g>
</g>
<g>
	<g>
		<path d="M47.678,43.612H47.6c-2.209,0-3.959,1.789-3.959,3.998c0,2.21,1.831,3.998,4.037,3.998c2.21,0,3.998-1.788,3.998-3.998
			C51.676,45.401,49.888,43.612,47.678,43.612z"/>
	</g>
</g>
<g>
	<g>
		<path d="M79.663,43.612h-0.078c-2.21,0-3.959,1.789-3.959,3.998c0,2.21,1.831,3.998,4.037,3.998c2.209,0,3.998-1.788,3.998-3.998
			C83.661,45.401,81.873,43.612,79.663,43.612z"/>
	</g>
</g>
<g>
	<g>
		<path d="M63.67,59.604h-0.078c-2.21,0-3.959,1.788-3.959,3.998c0,2.209,1.831,3.998,4.037,3.998c2.21,0,3.998-1.788,3.998-3.998
			C67.668,61.392,65.879,59.604,63.67,59.604z"/>
	</g>
</g>
<g>
	<g>
		<path d="M47.678,75.597H47.6c-2.209,0-3.959,1.789-3.959,3.998c0,2.21,1.831,3.998,4.037,3.998c2.21,0,3.998-1.788,3.998-3.998
			C51.676,77.386,49.888,75.597,47.678,75.597z"/>
	</g>
</g>
<g>
	<g>
		<path d="M95.655,59.604h-0.078c-2.21,0-3.959,1.788-3.959,3.998c0,2.209,1.831,3.998,4.037,3.998c2.21,0,3.998-1.788,3.998-3.998
			C99.653,61.392,97.865,59.604,95.655,59.604z"/>
	</g>
</g>
<g>
	<g>
		<path d="M79.663,75.597h-0.078c-2.21,0-3.959,1.789-3.959,3.998c0,2.21,1.831,3.998,4.037,3.998c2.209,0,3.998-1.788,3.998-3.998
			C83.661,77.386,81.873,75.597,79.663,75.597z"/>
	</g>
</g>
<g>
	<g>
		<path d="M63.67,91.589h-0.078c-2.21,0-3.959,1.788-3.959,3.998c0,2.209,1.831,3.998,4.037,3.998c2.21,0,3.998-1.788,3.998-3.998
			S65.879,91.589,63.67,91.589z"/>
	</g>
</g>
<g>
	<g>
		<path d="M111.647,75.597h-0.078c-2.21,0-3.959,1.789-3.959,3.998c0,2.21,1.831,3.998,4.037,3.998c2.21,0,3.998-1.788,3.998-3.998
			C115.645,77.386,113.857,75.597,111.647,75.597z"/>
	</g>
</g>
<g>
	<g>
		<path d="M79.663,107.582h-0.078c-2.21,0-3.959,1.788-3.959,3.998c0,2.21,1.831,3.998,4.037,3.998c2.209,0,3.998-1.788,3.998-3.998
			C83.661,109.37,81.873,107.582,79.663,107.582z"/>
	</g>
</g>
<g>
	<g>
		<path d="M127.639,91.589h-0.078c-2.21,0-3.959,1.788-3.959,3.998c0,2.209,1.831,3.998,4.037,3.998c2.21,0,3.998-1.788,3.998-3.998
			S129.849,91.589,127.639,91.589z"/>
	</g>
</g>
<g>
	<g>
		<path d="M95.655,123.574h-0.078c-2.21,0-3.959,1.788-3.959,3.998c0,2.21,1.831,3.998,4.037,3.998c2.21,0,3.998-1.788,3.998-3.998
			C99.653,125.362,97.865,123.574,95.655,123.574z"/>
	</g>
</g>
<g>
	<g>
		<path d="M143.631,107.582h-0.078c-2.209,0-3.959,1.788-3.959,3.998c0,2.21,1.831,3.998,4.037,3.998
			c2.21,0,3.998-1.788,3.998-3.998C147.629,109.37,145.841,107.582,143.631,107.582z"/>
	</g>
</g>
<g>
	<g>
		<path d="M111.647,139.566h-0.078c-2.21,0-3.959,1.788-3.959,3.998s1.831,3.998,4.037,3.998c2.21,0,3.998-1.788,3.998-3.998
			S113.857,139.566,111.647,139.566z"/>
	</g>
</g>
<g>
	<g>
		<path d="M159.624,123.574h-0.078c-2.21,0-3.959,1.788-3.959,3.998c0,2.21,1.831,3.998,4.037,3.998
			c2.209,0,3.998-1.788,3.998-3.998C163.622,125.362,161.833,123.574,159.624,123.574z"/>
	</g>
</g>
<g>
	<g>
		<path d="M175.616,139.566h-0.078c-2.209,0-3.959,1.788-3.959,3.998s1.831,3.998,4.037,3.998c2.21,0,3.998-1.788,3.998-3.998
			S177.826,139.566,175.616,139.566z"/>
	</g>
</g>
<g>
	<g>
		<path d="M191.609,155.558h-0.078c-2.21,0-3.959,1.788-3.959,3.998s1.831,3.998,4.037,3.998c2.209,0,3.998-1.788,3.998-3.998
			S193.818,155.558,191.609,155.558z"/>
	</g>
</g>
<g>
	<g>
		<path d="M207.601,171.55h-0.078c-2.21,0-3.959,1.789-3.959,3.998c0,2.21,1.831,3.999,4.037,3.999c2.21,0,3.998-1.789,3.998-3.999
			C211.599,173.339,209.811,171.55,207.601,171.55z"/>
	</g>
</g>
<g>
	<g>
		<path d="M223.593,187.543h-0.078c-2.21,0-3.959,1.788-3.959,3.998c0,2.21,1.831,3.998,4.037,3.998c2.21,0,3.998-1.788,3.998-3.998
			C227.591,189.331,225.803,187.543,223.593,187.543z"/>
	</g>
</g>
<g>
	<g>
		<path d="M239.585,203.535h-0.078c-2.21,0-3.959,1.789-3.959,3.998c0,2.21,1.831,3.999,4.037,3.999c2.21,0,3.998-1.789,3.998-3.999
			C243.583,205.324,241.795,203.535,239.585,203.535z"/>
	</g>
</g>
<g>
	<g>
		<path d="M255.578,219.528H255.5c-2.21,0-3.959,1.788-3.959,3.998c0,2.21,1.831,3.998,4.037,3.998c2.21,0,3.998-1.788,3.998-3.998
			C259.576,221.316,257.788,219.528,255.578,219.528z"/>
	</g>
</g>
<g>
	<g>
		<path d="M271.574,235.52h-0.086c-2.201,0-3.951,1.788-3.951,3.998c0,2.21,1.828,3.998,4.037,3.998
			c2.202,0,3.998-1.788,3.998-3.998C275.572,237.308,273.776,235.52,271.574,235.52z"/>
	</g>
</g>
<g>
	<g>
		<path d="M287.566,251.512h-0.086c-2.201,0-3.951,1.788-3.951,3.998c0,2.21,1.828,3.998,4.037,3.998
			c2.203,0,3.998-1.788,3.998-3.998S289.769,251.512,287.566,251.512z"/>
	</g>
</g>
<g>
	<g>
		<path d="M303.558,267.504h-0.085c-2.202,0-3.952,1.788-3.952,3.998c0,2.21,1.828,3.998,4.037,3.998
			c2.203,0,3.999-1.788,3.999-3.998C307.557,269.292,305.761,267.504,303.558,267.504z"/>
	</g>
</g>
<g>
	<g>
		<path d="M319.551,283.497h-0.086c-2.202,0-3.951,1.788-3.951,3.998c0,2.21,1.827,3.998,4.037,3.998
			c2.202,0,3.998-1.788,3.998-3.998C323.549,285.285,321.753,283.497,319.551,283.497z"/>
	</g>
</g>
<g>
	<g>
		<path d="M335.543,299.489h-0.086c-2.202,0-3.951,1.789-3.951,3.998c0,2.21,1.827,3.998,4.037,3.998
			c2.203,0,3.998-1.788,3.998-3.998C339.541,301.278,337.745,299.489,335.543,299.489z"/>
	</g>
</g>
<g>
	<g>
		<path d="M351.536,315.481h-0.086c-2.202,0-3.951,1.789-3.951,3.998c0,2.211,1.827,3.998,4.037,3.998
			c2.202,0,3.998-1.787,3.998-3.998C355.534,317.27,353.738,315.481,351.536,315.481z"/>
	</g>
</g>
<g>
	<g>
		<path d="M367.528,331.473h-0.086c-2.202,0-3.951,1.789-3.951,3.999c0,2.21,1.827,3.998,4.037,3.998
			c2.202,0,3.998-1.788,3.998-3.998C371.526,333.262,369.73,331.473,367.528,331.473z"/>
	</g>
</g>
<g>
	<g>
		<path d="M383.52,347.466h-0.086c-2.202,0-3.951,1.788-3.951,3.998c0,2.21,1.827,3.998,4.037,3.998
			c2.202,0,3.998-1.788,3.998-3.998C387.518,349.254,385.722,347.466,383.52,347.466z"/>
	</g>
</g>
<g>
	<g>
		<path d="M399.512,363.458h-0.085c-2.203,0-3.952,1.788-3.952,3.998c0,2.21,1.827,3.998,4.037,3.998
			c2.202,0,3.999-1.788,3.999-3.998C403.511,365.246,401.714,363.458,399.512,363.458z"/>
	</g>
</g>
<g>
	<g>
		<path d="M367.528,395.443h-0.086c-2.202,0-3.951,1.788-3.951,3.998c0,2.21,1.827,3.998,4.037,3.998
			c2.202,0,3.998-1.788,3.998-3.998C371.526,397.231,369.73,395.443,367.528,395.443z"/>
	</g>
</g>
<g>
	<g>
		<path d="M415.505,379.451h-0.086c-2.203,0-3.951,1.788-3.951,3.998c0,2.21,1.826,3.998,4.037,3.998
			c2.201,0,3.998-1.788,3.998-3.998C419.503,381.239,417.706,379.451,415.505,379.451z"/>
	</g>
</g>
<g>
	<g>
		<path d="M383.52,411.435h-0.086c-2.202,0-3.951,1.788-3.951,3.998c0,2.21,1.827,3.998,4.037,3.998
			c2.202,0,3.998-1.788,3.998-3.998C387.518,413.223,385.722,411.435,383.52,411.435z"/>
	</g>
</g>
<g>
	<g>
		<path d="M431.497,395.443h-0.086c-2.202,0-3.951,1.788-3.951,3.998c0,2.21,1.827,3.998,4.037,3.998
			c2.202,0,3.998-1.788,3.998-3.998C435.495,397.231,433.698,395.443,431.497,395.443z"/>
	</g>
</g>
<g>
	<g>
		<path d="M399.512,427.428h-0.085c-2.203,0-3.952,1.787-3.952,3.998c0,2.209,1.827,3.998,4.037,3.998
			c2.202,0,3.999-1.789,3.999-3.998C403.511,429.215,401.714,427.428,399.512,427.428z"/>
	</g>
</g>
<g>
	<g>
		<path d="M447.49,411.435h-0.086c-2.202,0-3.951,1.788-3.951,3.998c0,2.21,1.827,3.998,4.037,3.998
			c2.202,0,3.998-1.788,3.998-3.998C451.488,413.223,449.692,411.435,447.49,411.435z"/>
	</g>
</g>
<g>
	<g>
		<path d="M415.505,443.42h-0.086c-2.203,0-3.951,1.788-3.951,3.998c0,2.209,1.826,3.998,4.037,3.998
			c2.201,0,3.998-1.789,3.998-3.998C419.503,445.208,417.706,443.42,415.505,443.42z"/>
	</g>
</g>
<g>
	<g>
		<path d="M463.482,427.428h-0.086c-2.202,0-3.951,1.787-3.951,3.998c0,2.209,1.827,3.998,4.037,3.998
			c2.202,0,3.998-1.789,3.998-3.998C467.48,429.215,465.684,427.428,463.482,427.428z"/>
	</g>
</g>
<g>
	<g>
		<path d="M447.49,443.42h-0.086c-2.202,0-3.951,1.788-3.951,3.998c0,2.209,1.827,3.998,4.037,3.998
			c2.202,0,3.998-1.789,3.998-3.998C451.488,445.208,449.692,443.42,447.49,443.42z"/>
	</g>
</g>
<g>
	<g>
		<path d="M431.497,459.413h-0.086c-2.202,0-3.951,1.788-3.951,3.998c0,2.209,1.827,3.998,4.037,3.998
			c2.202,0,3.999-1.789,3.998-3.998C435.495,461.201,433.698,459.413,431.497,459.413z"/>
	</g>
</g>
<g>
	<g>
		<path d="M463.482,459.413h-0.086c-2.202,0-3.951,1.788-3.951,3.998c0,2.209,1.827,3.998,4.037,3.998
			c2.202,0,3.998-1.789,3.998-3.998C467.48,461.201,465.684,459.413,463.482,459.413z"/>
	</g>
</g>
<g>
	<g>
		<path d="M479.474,475.405h-0.086c-2.202,0-3.951,1.788-3.951,3.998c0,2.21,1.827,3.998,4.037,3.998
			c2.202,0,3.998-1.788,3.998-3.998C483.472,477.193,481.676,475.405,479.474,475.405z"/>
	</g>
</g>
<g>
	<g>
		<path d="M495.466,491.397h-0.086c-2.202,0-3.951,1.788-3.951,3.998c0,2.21,1.827,3.998,4.037,3.998
			c2.202,0,3.998-1.788,3.998-3.998C499.464,493.185,497.668,491.397,495.466,491.397z"/>
	</g>
</g>
<g>
	<g>
		<path d="M361.31,358.796c-1.53-1.577-4.068-1.616-5.653-0.078c-27.01,26.261-62.641,40.723-100.319,40.723
			c-79.364,0-143.931-64.563-143.931-143.931c0-37.666,14.462-73.29,40.723-100.312c1.538-1.585,1.504-4.114-0.078-5.653
			c-1.585-1.546-4.115-1.499-5.653,0.078c-27.721,28.526-42.987,66.129-42.987,105.887c0,83.773,68.155,151.927,151.927,151.927
			c39.771,0,77.377-15.266,105.893-42.988C362.818,362.911,362.849,360.381,361.31,358.796z"/>
	</g>
</g>
<g>
	<g>
		<path d="M255.34,103.582c-21.568,0-42.421,4.435-61.978,13.177c-2.015,0.902-2.921,3.268-2.019,5.283
			c0.902,2.007,3.256,2.928,5.282,2.019c18.526-8.281,38.279-12.482,58.714-12.482c79.361,0,143.932,64.567,143.932,143.931
			c0,20.459-4.194,40.207-12.471,58.714c-0.906,2.015,0,4.381,2.015,5.286c0.53,0.235,1.085,0.344,1.632,0.344
			c1.522,0,2.982-0.874,3.647-2.366c8.746-19.539,13.174-40.388,13.174-61.979C407.268,171.736,339.112,103.582,255.34,103.582z"/>
	</g>
</g>
<g>
	<g>
		<path d="M286.496,224.369C184.752,122.637,25.103-20.345,2.254,2.429c-7.403,7.418-2.729,39.086,111.79,167.856
			c1.464,1.651,3.991,1.8,5.642,0.332c1.651-1.468,1.8-3.994,0.332-5.642C27.781,61.255,2.306,13.696,7.912,8.082
			c10.686-10.667,119.645,68.67,272.931,221.94c153.293,153.294,232.575,262.273,221.939,272.916
			c-5.598,5.623-53.169-19.834-156.908-112.094c-1.64-1.477-4.162-1.32-5.646,0.327c-1.46,1.648-1.319,4.178,0.336,5.646
			c105.809,94.111,146.07,114.039,161.173,114.039c3.28,0,5.38-0.937,6.699-2.263C531.276,485.744,388.221,326.101,286.496,224.369z
			"/>
	</g>
</g>
<g>
	<g>
		<path d="M391.515,368.01c-32.36-37.106-76.315-83.787-120.59-128.07C206.654,175.677,85.322,67.413,72.274,80.434
			c-4.837,4.826,0.976,11.503,26.386,39.005c9.223,9.984,19.675,21.295,29.705,32.969c1.449,1.679,3.971,1.87,5.638,0.429
			c1.675-1.441,1.867-3.963,0.43-5.638c-10.124-11.784-20.631-23.153-29.9-33.187c-8.347-9.035-17.492-18.932-22.337-25.078
			c22.774,11.951,99.605,73.195,183.077,156.658c85.856,85.865,152.652,162.321,164.771,184.06
			c-7.629-4.732-25.276-17.983-65.655-52.615c-1.656-1.436-4.186-1.241-5.638,0.43c-1.437,1.679-1.242,4.201,0.437,5.638
			c55.864,47.923,70.45,57.168,75.925,57.168c1.624,0,2.452-0.819,3.309-1.687C441.725,435.291,446.239,430.77,391.515,368.01z"/>
	</g>
</g>
<g>
</g>
<g>
</g>
<g>
</g>
<g>
</g>
<g>
</g>
<g>
</g>
<g>
</g>
<g>
</g>
<g>
</g>
<g>
</g>
<g>
</g>
<g>
</g>
<g>
</g>
<g>
</g>
<g>
</g>
</svg>
